<svg xmlns="http://www.w3.org/2000/svg" width="27" height="25" fill="none" viewBox="0 0 27 25">
  <path stroke="#161922" stroke-linecap="round" stroke-linejoin="round" stroke-width="1.5" d="m24.077 6.773-.801 13.531a2.855 2.855 0 0 1-.901 1.916 2.896 2.896 0 0 1-1.98.78H6.605a2.896 2.896 0 0 1-1.98-.78 2.855 2.855 0 0 1-.9-1.916L2.922 6.773m8.013 4.773h5.128M2.442 6.773h22.116C25.354 6.773 26 6.13 26 5.34V3.43C26 2.642 25.354 2 24.558 2H2.442C1.646 2 1 2.641 1 3.432V5.34c0 .79.646 1.432 1.442 1.432Z"/>
</svg>
