<svg xmlns="http://www.w3.org/2000/svg" width="25" height="27" fill="none" viewBox="0 0 25 27">
  <path stroke="#626262" stroke-linecap="round" stroke-linejoin="round" stroke-width="1.5" d="M22 16.385v-3.366a4.244 4.244 0 0 0-1.318-3.06A4.593 4.593 0 0 0 17.5 8.693h-2c-.398 0-.78-.152-1.06-.422A1.415 1.415 0 0 1 14 7.25V5.327a4.244 4.244 0 0 0-1.318-3.06A4.593 4.593 0 0 0 9.5 1H7m0 16.346h10M7 21.192h5M10 1H3.5C2.672 1 2 1.646 2 2.442v22.116C2 25.354 2.672 26 3.5 26h17c.828 0 1.5-.646 1.5-1.442v-12.02c0-3.06-1.264-5.995-3.515-8.158C16.235 2.216 13.183 1 10 1Z"/>
</svg>
