<svg xmlns="http://www.w3.org/2000/svg" width="26" height="27" fill="none" viewBox="0 0 26 27">
  <path stroke="#626262" stroke-linecap="round" stroke-linejoin="round" stroke-width="1.5" d="M9.64 2.306A1.569 1.569 0 0 1 11.19 1h3.62c.769 0 1.425.553 1.55 1.306l.298 1.779c.088.52.437.952.9 1.208.104.056.206.115.308.176.452.273 1.005.357 1.501.173l1.7-.634a1.579 1.579 0 0 1 1.913.68l1.81 3.122a1.555 1.555 0 0 1-.364 1.987l-1.4 1.149c-.41.333-.612.851-.602 1.378.002.118.002.236 0 .354-.01.525.192 1.041.6 1.375l1.403 1.15c.593.486.746 1.325.364 1.986l-1.813 3.12c-.186.321-.48.565-.83.69a1.58 1.58 0 0 1-1.081-.007l-1.7-.634c-.496-.184-1.047-.1-1.502.173a9.1 9.1 0 0 1-.308.177c-.462.255-.81.688-.899 1.207l-.297 1.778A1.569 1.569 0 0 1 14.81 26h-3.622a1.569 1.569 0 0 1-1.55-1.306l-.298-1.779c-.086-.52-.436-.953-.9-1.208a9.238 9.238 0 0 1-.306-.176c-.454-.273-1.006-.357-1.503-.173l-1.7.634a1.578 1.578 0 0 1-1.91-.68L1.21 18.19a1.555 1.555 0 0 1 .363-1.987l1.402-1.149c.408-.333.61-.851.6-1.378a9.549 9.549 0 0 1 0-.354c.01-.525-.192-1.041-.6-1.375l-1.402-1.15a1.56 1.56 0 0 1-.363-1.986l1.811-3.12a1.579 1.579 0 0 1 1.913-.682l1.698.633c.497.184 1.049.1 1.503-.173.1-.06.204-.12.307-.177.463-.255.813-.688.9-1.207l.298-1.78Z"/>
  <path stroke="#626262" stroke-linecap="round" stroke-linejoin="round" stroke-width="1.5" d="M17.189 13.5a4.155 4.155 0 0 1-1.227 2.946A4.2 4.2 0 0 1 13 17.666a4.2 4.2 0 0 1-2.963-1.22A4.155 4.155 0 0 1 8.811 13.5c0-1.105.44-2.165 1.226-2.946A4.2 4.2 0 0 1 13 9.334a4.2 4.2 0 0 1 2.962 1.22 4.155 4.155 0 0 1 1.227 2.946Z"/>
</svg>
