<svg xmlns="http://www.w3.org/2000/svg" width="25" height="27" fill="none" viewBox="0 0 25 27">
  <path stroke="#626262" stroke-linecap="round" stroke-linejoin="round" stroke-width="1.5" d="M15.636 9.333V4.125a3.12 3.12 0 0 0-.918-2.21A3.142 3.142 0 0 0 12.5 1H4.136c-.831 0-1.63.33-2.217.915A3.12 3.12 0 0 0 1 4.125v18.75c0 .829.33 1.624.919 2.21A3.142 3.142 0 0 0 4.136 26H12.5c.832 0 1.63-.33 2.218-.915a3.12 3.12 0 0 0 .918-2.21v-5.208M10.41 9.333 6.227 13.5m0 0 4.182 4.167M6.227 13.5H24"/>
</svg>
