<svg xmlns="http://www.w3.org/2000/svg" width="100" height="100" fill="none" viewBox="0 0 100 100">
  <path fill="#000" d="M25.251 81.82 37.98 69.092a5 5 0 0 0-7.07-7.071L18.18 74.749a5 5 0 0 0 7.071 7.07Z" opacity=".125"/>
  <path fill="#000" d="M10 55h18a5 5 0 0 0 0-10H10a5 5 0 0 0 0 10Z" opacity=".25"/>
  <path fill="#000" d="M18.18 25.251 30.908 37.98a5 5 0 0 0 7.071-7.07L25.251 18.18a5 5 0 0 0-7.07 7.071Z" opacity=".375"/>
  <path fill="#000" d="M45 10v18a5 5 0 0 0 10 0V10a5 5 0 0 0-10 0Z" opacity=".5"/>
  <path fill="#000" d="M74.749 18.18 62.02 30.908a5 5 0 0 0 7.07 7.071L81.82 25.251a5 5 0 1 0-7.071-7.07Z" opacity=".625"/>
  <path fill="#000" d="M90 45H72a5 5 0 0 0 0 10h18a5 5 0 0 0 0-10Z" opacity=".75"/>
  <path fill="#000" d="M81.82 74.749 69.092 62.02a5 5 0 0 0-7.071 7.07L74.749 81.82a5 5 0 0 0 7.07-7.071Z" opacity=".875"/>
</svg>
