<svg xmlns="http://www.w3.org/2000/svg" width="27" height="26" fill="none" viewBox="0 0 27 26">
  <path stroke="#626262" stroke-linecap="round" stroke-linejoin="round" stroke-width="1.5" d="M17.347 22.504c1.093.33 2.226.497 3.365.496a11.592 11.592 0 0 0 5.283-1.27 5.661 5.661 0 0 0-.932-3.358 5.313 5.313 0 0 0-2.69-2.095 5.096 5.096 0 0 0-3.36.013 5.318 5.318 0 0 0-2.675 2.117m1.009 4.097V22.5c0-1.484-.367-2.88-1.01-4.093m1.01 4.097v.141A15.336 15.336 0 0 1 9.173 25C6.184 25 3.388 24.14 1 22.645L1 22.5a8.721 8.721 0 0 1 1.714-5.213 8.157 8.157 0 0 1 4.427-3.025 7.881 7.881 0 0 1 5.281.434 8.3 8.3 0 0 1 3.916 3.71M13.5 5.5a4.593 4.593 0 0 1-1.267 3.182A4.244 4.244 0 0 1 9.174 10a4.244 4.244 0 0 1-3.06-1.318A4.593 4.593 0 0 1 4.848 5.5c0-1.193.456-2.338 1.268-3.182A4.244 4.244 0 0 1 9.175 1c1.147 0 2.247.474 3.059 1.318A4.593 4.593 0 0 1 13.5 5.5Zm10.576 3c0 .928-.354 1.819-.985 2.475A3.301 3.301 0 0 1 20.712 12a3.301 3.301 0 0 1-2.38-1.025 3.572 3.572 0 0 1-.985-2.475c0-.928.354-1.819.985-2.475A3.3 3.3 0 0 1 20.712 5a3.3 3.3 0 0 1 2.38 1.025c.63.656.985 1.547.985 2.475Z"/>
</svg>
