<?xml version="1.0" standalone="no"?>
<!DOCTYPE svg PUBLIC "-//W3C//DTD SVG 20010904//EN"
 "http://www.w3.org/TR/2001/REC-SVG-20010904/DTD/svg10.dtd">
<svg version="1.0" xmlns="http://www.w3.org/2000/svg"
 width="170.000000pt" height="170.000000pt" viewBox="0 0 170.000000 170.000000"
 preserveAspectRatio="xMidYMid meet">
<metadata>
Created by potrace 1.14, written by Peter Selinger 2001-2017
</metadata>
<g transform="translate(0.000000,170.000000) scale(0.100000,-0.100000)"
fill="#000000" stroke="none">
<path d="M768 1425 c-27 -20 -48 -42 -48 -49 0 -8 -4 -16 -8 -18 -5 -1 -28
-32 -52 -68 -24 -36 -46 -67 -50 -70 -4 -3 -26 -34 -50 -70 -24 -36 -47 -66
-52 -68 -4 -2 -8 -9 -8 -15 0 -7 -10 -24 -23 -38 -12 -15 -47 -62 -77 -105
-30 -42 -70 -97 -87 -121 -18 -24 -33 -45 -33 -48 0 -3 -6 -13 -14 -22 -32
-39 -86 -113 -86 -118 0 -3 -6 -13 -14 -22 -33 -41 -86 -114 -86 -119 0 -2 -9
-14 -20 -26 -15 -17 -20 -36 -20 -78 0 -50 4 -61 36 -98 l36 -42 742 0 742 0
25 27 c13 16 30 38 37 50 17 31 14 93 -6 124 -37 58 -127 185 -139 197 -7 7
-20 26 -30 42 -9 17 -21 30 -25 30 -4 0 -8 6 -8 13 0 7 -8 22 -18 33 -10 10
-38 48 -62 84 -24 36 -46 67 -50 70 -4 3 -26 34 -50 70 -24 36 -47 67 -52 68
-4 2 -8 8 -8 13 0 5 -16 30 -36 56 -19 27 -41 55 -47 64 -7 8 -16 22 -22 31
-87 134 -163 226 -202 247 -40 21 -85 13 -135 -24z m139 -20 c23 -16 61 -67
243 -325 68 -96 137 -194 154 -217 17 -23 74 -103 126 -178 52 -75 119 -171
148 -213 49 -69 53 -81 49 -117 -4 -28 -15 -48 -37 -67 l-30 -28 -708 0 c-765
1 -735 -1 -773 56 -27 41 -24 69 12 123 129 190 674 943 695 960 31 25 90 28
121 6z"/>
<path d="M739 1173 l-106 -147 52 -51 c58 -56 84 -102 124 -214 14 -41 31 -76
37 -78 6 -2 25 37 43 86 37 103 76 167 133 216 l41 34 -49 70 c-112 158 -165
231 -167 231 -1 0 -50 -66 -108 -147z m180 -54 c43 -42 48 -71 20 -115 -30
-50 -78 -69 -122 -50 -39 16 -77 60 -77 88 0 24 16 56 43 86 32 35 97 31 136
-9z"/>
<path d="M480 821 c-46 -65 -86 -123 -88 -130 -3 -8 51 -11 197 -11 111 0 201
2 201 5 0 20 -36 84 -75 135 -41 54 -121 121 -142 120 -4 -1 -46 -54 -93 -119z"/>
<path d="M1064 912 c-69 -50 -164 -174 -164 -214 0 -17 14 -18 200 -18 110 0
200 3 200 7 0 3 -17 29 -38 57 -95 126 -132 179 -132 187 0 17 -27 9 -66 -19z"/>
<path d="M370 621 c-83 -26 -140 -87 -140 -152 0 -48 35 -99 85 -123 80 -40
215 -18 215 34 0 21 -28 28 -46 11 -5 -5 -25 -11 -45 -15 -66 -12 -115 55 -98
133 10 44 27 60 73 68 29 4 44 1 66 -16 16 -11 32 -21 35 -21 3 0 5 16 5 35 0
29 -5 37 -26 45 -29 12 -88 12 -124 1z"/>
<path d="M628 623 l-68 -4 0 -144 0 -145 160 0 c144 0 161 2 166 18 18 57 18
57 76 54 53 -4 56 -5 65 -35 8 -31 10 -32 72 -35 35 -2 61 1 59 5 -1 4 -23 48
-47 97 -24 49 -49 106 -56 125 -17 49 -57 78 -92 65 -23 -8 -36 -30 -82 -136
-48 -109 -58 -125 -72 -117 -10 5 -50 9 -89 9 l-71 0 3 38 3 37 57 -3 c48 -3
59 -1 65 14 10 27 -25 46 -74 41 -36 -4 -42 -1 -47 17 -12 44 -9 46 68 46 53
0 75 4 79 13 14 38 -33 49 -175 40z m350 -128 c18 -38 15 -45 -18 -45 -33 0
-35 5 -20 44 12 33 24 33 38 1z"/>
<path d="M1267 610 c-60 -23 -74 -34 -98 -81 -24 -48 -24 -70 1 -119 27 -54
85 -82 165 -83 65 0 125 23 125 49 0 21 -24 28 -50 14 -11 -6 -39 -12 -62 -13
-56 -2 -88 35 -88 101 1 50 12 72 47 90 33 18 67 14 97 -9 32 -25 50 -15 41
23 -13 49 -92 62 -178 28z"/>
</g>
</svg>
